<svg width="110" height="93" viewBox="0 0 110 93" fill="none" xmlns="http://www.w3.org/2000/svg">
<path d="M103.606 39.1051C105.706 39.7051 107.306 40.1051 109.006 40.6051C108.006 42.3051 107.406 44.4051 105.906 45.5051C101.806 48.5051 101.206 50.7051 103.506 56.6051C105.506 57.1051 107.206 57.5051 108.906 57.9051C107.706 59.4051 106.906 61.5051 105.306 62.4051C89.3058 71.9051 73.2057 81.3051 57.0057 90.6051C52.3057 93.3051 47.6057 93.4051 42.9057 90.5051C30.0057 82.5051 17.2057 74.5051 4.20575 66.6051C1.10575 64.7051 -0.0942645 62.6051 0.00573549 59.0051C0.205735 50.6051 -0.0942523 42.2051 0.205748 33.7051C0.305748 32.0051 1.70574 29.6051 3.10574 28.9051C22.9057 18.3051 41.0057 9.20508 55.4057 1.80508C56.3057 1.30508 59.0057 -0.0949073 62.5057 0.00509269C66.1057 0.00509269 68.8057 1.50509 70.0057 2.20509C91.1057 13.9051 101.806 19.4051 105.506 21.5051C110.306 24.2051 110.306 25.3051 105.706 28.1051C101.706 30.7051 101.206 33.2051 103.606 39.1051ZM9.70575 30.6051C22.2057 37.9051 34.1058 44.6051 45.7057 51.7051C48.6058 53.4051 50.6057 53.2051 53.4057 51.7051C67.5057 43.8051 81.7058 36.2051 95.8058 28.4051C97.7058 27.4051 99.5058 26.1051 101.806 24.7051C89.1058 17.7051 77.1057 11.0051 64.9057 4.40509C63.8057 3.80509 61.9058 3.40509 60.8058 4.00509C44.1058 12.6051 27.3057 21.4051 9.70575 30.6051ZM2.90574 50.7051C2.20574 57.1051 3.30575 60.8051 8.20575 63.7051C21.1057 71.3051 33.7057 79.3051 46.3057 87.3051C49.1057 89.1051 51.1057 89.0051 53.9057 87.3051C67.9057 79.0051 82.0057 70.8051 96.0057 62.6051C97.2057 61.9051 98.4058 61.0051 99.3058 60.4051C98.6058 56.9051 98.0058 53.8051 97.3058 50.5051C95.6058 51.4051 94.1058 52.1051 92.7057 52.9051C79.9057 60.2051 67.0058 67.4051 54.2057 74.9051C51.0057 76.8051 48.7057 76.7051 45.6057 74.8051C33.6057 67.4051 21.4057 60.3051 9.20575 53.2051C7.50575 52.2051 5.50574 51.7051 2.90574 50.7051ZM97.2057 32.9051C82.3057 41.0051 68.0058 48.6051 53.8058 56.7051C50.4058 58.6051 47.9058 58.4051 44.7057 56.5051C33.0057 49.5051 21.2057 42.7051 9.40574 35.9051C8.10574 35.2051 6.80574 34.2051 5.40574 34.1051C4.50574 34.0051 2.70575 35.2051 2.70575 35.8051C2.80575 39.2051 2.50574 42.7051 6.30574 44.9051C19.7057 52.9051 32.9057 61.3051 46.4057 69.2051C48.1057 70.2051 51.2057 70.0051 53.0057 69.0051C65.5057 62.4051 77.7057 55.4051 90.1057 48.5051C93.3057 46.7051 96.4057 44.9051 99.4057 43.1051C98.7057 39.7051 98.0058 36.6051 97.2057 32.9051Z" fill="black"/>
</svg>
