<svg width="430" height="93" viewBox="0 0 430 93" fill="none" xmlns="http://www.w3.org/2000/svg">
<path d="M103.606 39.1051C105.706 39.7051 107.306 40.1051 109.006 40.6051C108.006 42.3051 107.406 44.4051 105.906 45.5051C101.806 48.5051 101.206 50.7051 103.506 56.6051C105.506 57.1051 107.206 57.5051 108.906 57.9051C107.706 59.4051 106.906 61.5051 105.306 62.4051C89.3058 71.9051 73.2057 81.3051 57.0057 90.6051C52.3057 93.3051 47.6057 93.4051 42.9057 90.5051C30.0057 82.5051 17.2057 74.5051 4.20575 66.6051C1.10575 64.7051 -0.0942645 62.6051 0.00573549 59.0051C0.205735 50.6051 -0.0942523 42.2051 0.205748 33.7051C0.305748 32.0051 1.70574 29.6051 3.10574 28.9051C22.9057 18.3051 41.0057 9.20508 55.4057 1.80508C56.3057 1.30508 59.0057 -0.0949073 62.5057 0.00509269C66.1057 0.00509269 68.8057 1.50509 70.0057 2.20509C91.1057 13.9051 101.806 19.4051 105.506 21.5051C110.306 24.2051 110.306 25.3051 105.706 28.1051C101.706 30.7051 101.206 33.2051 103.606 39.1051ZM9.70575 30.6051C22.2057 37.9051 34.1057 44.6051 45.7057 51.7051C48.6057 53.4051 50.6057 53.2051 53.4057 51.7051C67.5057 43.8051 81.7058 36.2051 95.8058 28.4051C97.7058 27.4051 99.5058 26.1051 101.806 24.7051C89.1058 17.7051 77.1057 11.0051 64.9057 4.40509C63.8057 3.80509 61.9058 3.40509 60.8058 4.00509C44.1058 12.6051 27.3057 21.4051 9.70575 30.6051ZM2.90574 50.7051C2.20574 57.1051 3.30575 60.8051 8.20575 63.7051C21.1057 71.3051 33.7057 79.3051 46.3057 87.3051C49.1057 89.1051 51.1057 89.0051 53.9057 87.3051C67.9057 79.0051 82.0057 70.8051 96.0057 62.6051C97.2057 61.9051 98.4058 61.0051 99.3058 60.4051C98.6058 56.9051 98.0058 53.8051 97.3058 50.5051C95.6058 51.4051 94.1057 52.1051 92.7057 52.9051C79.9057 60.2051 67.0057 67.4051 54.2057 74.9051C51.0057 76.8051 48.7057 76.7051 45.6057 74.8051C33.6057 67.4051 21.4057 60.3051 9.20575 53.2051C7.50575 52.2051 5.50574 51.7051 2.90574 50.7051ZM97.2057 32.9051C82.3057 41.0051 68.0058 48.6051 53.8058 56.7051C50.4058 58.6051 47.9057 58.4051 44.7057 56.5051C33.0057 49.5051 21.2057 42.7051 9.40574 35.9051C8.10574 35.2051 6.80574 34.2051 5.40574 34.1051C4.50574 34.0051 2.70575 35.2051 2.70575 35.8051C2.80575 39.2051 2.50574 42.7051 6.30574 44.9051C19.7057 52.9051 32.9057 61.3051 46.4057 69.2051C48.1057 70.2051 51.2057 70.0051 53.0057 69.0051C65.5057 62.4051 77.7057 55.4051 90.1057 48.5051C93.3057 46.7051 96.4057 44.9051 99.4057 43.1051C98.7057 39.7051 98.0057 36.6051 97.2057 32.9051Z" fill="black"/>
<path d="M220.106 46.6051C220.106 57.6051 219.906 68.6051 220.206 79.6051C220.306 84.6051 217.206 85.1051 213.806 85.2051C210.406 85.2051 207.206 84.5051 207.406 79.6051C207.706 72.5051 207.306 65.3051 207.506 58.1051C207.606 54.1051 206.306 52.4051 202.106 52.5051C191.506 52.7051 193.306 52.2051 193.206 61.3051C193.106 67.3051 193.206 73.3051 193.206 79.3051C193.206 83.3051 190.706 85.7051 186.506 85.3051C182.906 85.0051 180.306 83.7051 180.306 79.1051C180.406 57.3051 180.406 35.5051 180.306 13.7051C180.306 9.0051 182.806 7.60509 186.906 7.60509C191.006 7.60509 193.506 9.0051 193.306 13.7051C193.106 21.2051 193.306 28.7051 193.206 36.2051C193.106 39.3051 194.206 40.3051 197.206 40.2051C208.906 39.9051 207.406 41.6051 207.506 30.3051C207.506 25.0051 207.706 19.6051 207.406 14.3051C207.106 9.60509 208.906 7.50509 213.706 7.60509C218.806 7.70509 220.006 8.80509 220.106 14.1051C220.106 25.0051 220.106 35.8051 220.106 46.6051Z" fill="black"/>
<path d="M149.406 7.40509C154.906 7.50509 161.306 9.50509 164.506 16.6051C165.506 18.8051 165.706 22.2051 164.706 24.3051C163.606 26.5051 155.806 25.7051 154.306 23.3051C151.906 19.5051 148.806 18.8051 145.406 20.9051C141.406 23.5051 142.006 28.1051 144.106 31.2051C147.206 35.8051 151.506 39.6051 155.206 43.9051C158.406 47.7051 162.006 51.3051 164.306 55.6051C171.206 68.6051 165.506 81.2051 151.606 84.8051C142.206 87.2051 130.506 78.6051 130.306 68.9051C130.306 67.3051 131.906 64.9051 133.406 64.3051C136.606 63.1051 140.006 63.1051 142.306 66.5051C143.006 67.6051 143.206 69.3051 144.206 69.9051C145.906 71.0051 148.206 72.4051 149.706 71.9051C151.506 71.3051 154.106 68.7051 153.906 67.3051C153.406 63.7051 152.306 59.8051 150.106 57.1051C146.206 52.2051 141.106 48.2051 137.006 43.5051C130.806 36.4051 128.306 28.3051 131.506 19.0051C134.206 11.2051 139.406 7.60509 149.406 7.40509Z" fill="black"/>
<path d="M398.106 46.4051C398.106 35.4051 398.206 24.4051 398.006 13.4051C397.906 8.9051 399.506 7.00509 404.106 7.30509C410.206 7.60509 416.406 7.4051 422.606 7.5051C427.706 7.6051 429.106 9.1051 429.006 14.1051C429.006 18.6051 427.006 20.9051 422.206 20.4051C419.906 20.2051 417.506 20.6051 415.206 20.3051C411.606 19.9051 410.406 21.5051 410.706 24.9051C410.806 26.7051 410.706 28.6051 410.706 30.4051C410.706 39.2051 410.706 39.4051 419.506 40.1051C423.806 40.5051 424.006 43.3051 424.006 46.4051C424.006 50.0051 423.506 53.0051 418.806 53.4051C410.606 54.0051 410.606 54.1051 410.606 61.8051C410.606 72.4051 410.606 72.4051 422.106 72.4051C427.906 72.4051 429.406 74.1051 428.906 79.8051C428.606 83.2051 427.006 84.8051 423.406 84.8051C416.706 84.7051 410.106 84.6051 403.406 84.8051C399.406 84.9051 397.706 83.4051 397.806 79.3051C398.206 68.4051 398.106 57.4051 398.106 46.4051Z" fill="black"/>
<path d="M235.906 45.9051C235.906 34.9051 236.006 23.9051 235.806 12.9051C235.706 8.8051 237.206 7.2051 241.306 7.4051C247.806 7.7051 254.306 7.7051 260.806 7.6051C265.506 7.5051 266.206 10.2051 266.306 14.0051C266.306 17.8051 265.806 20.5051 261.006 20.5051C256.906 20.5051 251.506 19.6051 249.206 21.8051C247.206 23.7051 248.506 29.3051 248.506 33.3051C248.506 39.7051 247.106 40.6051 255.606 40.2051C260.206 40.0051 262.006 42.1051 262.006 46.4051C262.006 51.3051 260.406 53.2051 255.806 53.5051C254.306 53.6051 252.706 53.2051 251.306 53.6051C250.206 54.0051 249.306 55.2051 248.506 56.2051C248.206 56.6051 248.406 57.5051 248.506 58.2051C248.706 62.7051 247.306 68.3051 249.506 71.2051C251.306 73.5051 257.506 72.5051 261.706 72.5051C265.806 72.5051 266.406 74.9051 266.306 78.0051C266.206 81.1051 267.006 84.9051 262.106 84.9051C254.606 85.0051 247.106 84.9051 239.606 85.0051C236.506 85.0051 235.806 83.3051 235.806 80.5051C235.906 68.9051 235.906 57.4051 235.906 45.9051Z" fill="black"/>
<path d="M325.606 46.2051C325.606 35.5051 325.606 24.9051 325.606 14.2051C325.606 8.5051 326.606 7.60509 332.406 7.60509C338.706 7.60509 345.106 7.8051 351.406 7.5051C356.006 7.3051 356.606 10.3051 356.606 13.6051C356.706 17.1051 356.206 20.5051 351.406 20.3051C351.206 20.3051 351.106 20.3051 350.906 20.3051C346.806 20.6051 342.806 21.0051 338.706 21.3051C338.606 26.8051 338.106 32.3051 338.706 37.7051C338.806 38.7051 342.806 39.8051 345.106 40.0051C350.906 40.4051 351.806 41.1051 351.706 46.8051C351.606 52.2051 350.406 53.5051 344.106 53.2051C339.506 53.0051 337.906 54.3051 338.206 59.1051C338.606 65.9051 338.106 72.8051 338.406 79.6051C338.606 84.6051 335.006 85.1051 331.906 85.1051C328.706 85.2051 325.606 84.0051 325.706 79.6051C325.606 68.6051 325.606 57.4051 325.606 46.2051Z" fill="black"/>
<path d="M295.006 72.7051C299.706 72.7051 303.606 72.8051 307.606 72.7051C312.406 72.6051 312.206 75.8051 312.306 79.1051C312.406 82.5051 311.906 85.0051 307.606 84.9051C300.806 84.7051 294.006 84.8051 287.106 84.9051C283.606 84.9051 282.206 83.6051 282.206 79.8051C282.406 57.7051 282.406 35.5051 282.206 13.4051C282.206 8.80508 284.606 8.20508 288.106 8.20508C291.806 8.20508 295.106 8.50507 295.106 13.6051C295.006 31.2051 295.106 48.9051 295.106 66.5051C295.006 68.3051 295.006 70.1051 295.006 72.7051Z" fill="black"/>
<path d="M370.006 46.2051C370.006 35.2051 370.106 24.2051 369.906 13.3051C369.806 9.10508 371.406 7.40508 375.806 7.30508C380.206 7.30508 382.806 8.20508 382.806 13.3051C382.706 35.3051 382.706 57.2051 382.806 79.2051C382.806 84.0051 379.806 85.3051 376.006 85.2051C372.506 85.1051 369.806 83.8051 369.906 79.2051C370.206 68.2051 370.006 57.2051 370.006 46.2051Z" fill="black"/>
</svg>
